<svg id="canvas" height="auto" xmlns="http://www.w3.org/2000/svg" version="1.1" xmlns:xlink="http://www.w3.org/1999/xlink" viewBox="0 0 900 512" width="auto" style="width: auto; height: auto;"><defs><linearGradient gradientTransform="matrix(6.123233995736766e-17,1,-1,6.123233995736766e-17,0,0)" id="SvgjsLinearGradient1039"><stop stop-color="#45d5c9ff" offset="0"/><stop stop-color="#0e403cff" offset="1"/></linearGradient><linearGradient gradientTransform="matrix(-0.25881904510252085,0.9659258262890683,-0.9659258262890683,-0.25881904510252085,0,0)" id="SvgjsLinearGradient1040"><stop stop-color="#6fd97aff" offset="0"/><stop stop-color="#2fb33dff" offset="1"/></linearGradient><linearGradient gradientTransform="matrix(-0.25881904510252085,0.9659258262890683,-0.9659258262890683,-0.25881904510252085,0,0)" id="SvgjsLinearGradient1041"><stop stop-color="#051106ff" offset="0"/><stop stop-color="#2fb33dff" offset="1"/></linearGradient></defs><rect width="900" height="512" fill="url(#SvgjsLinearGradient1039)"/><g transform="matrix(0.2,0,0,0.2,-238.4,339.5199951171875)"><path d="M291 448.5L369.5 2L2 448.5H291Z" fill="url(#SvgjsLinearGradient1040)" transform="matrix(1,0,0,1,-300,422.4)"/><path d="M290.5 448L370 2.5L708.5 448H290.5Z" fill="url(#SvgjsLinearGradient1041)" transform="matrix(1,0,0,1,-300,422.4)"/></g><g transform="matrix(0.7031010157198898,0,0,0.7031010157198898,0.5937979685602204,59.08608721629963)"><path d="M291 448.5L369.5 2L2 448.5H291Z" fill="url(#SvgjsLinearGradient1040)" transform="matrix(1,0,0,1,0,197.01074495748935)"/><path d="M290.5 448L370 2.5L708.5 448H290.5Z" fill="url(#SvgjsLinearGradient1041)" transform="matrix(1,0,0,1,0,197.01074495748935)"/></g><g transform="matrix(0.2,0,0,0.2,241.6,339.5199951171875)"><path d="M291 448.5L369.5 2L2 448.5H291Z" fill="url(#SvgjsLinearGradient1040)" transform="matrix(1,0,0,1,300,422.4)"/><path d="M290.5 448L370 2.5L708.5 448H290.5Z" fill="url(#SvgjsLinearGradient1041)" transform="matrix(1,0,0,1,300,422.4)"/></g><g transform="matrix(0.5399410775994686,0,0,0.5399410775994686,276.95547128511987,125.18496992893967)"><path d="M291 448.5L369.5 2L2 448.5H291Z" fill="url(#SvgjsLinearGradient1040)" transform="matrix(1,0,0,1,600,270.10639723543807)"/><path d="M290.5 448L370 2.5L708.5 448H290.5Z" fill="url(#SvgjsLinearGradient1041)" transform="matrix(1,0,0,1,600,270.10639723543807)"/></g></svg>