<svg width="524" height="242" viewBox="0 0 524 242" fill="none" xmlns="http://www.w3.org/2000/svg">
<path d="M491.376 236.184C490.097 237.634 490.235 239.846 491.684 241.124C493.134 242.403 495.346 242.265 496.624 240.816L491.376 236.184ZM513.535 192.389L510.154 191.483L513.535 192.389ZM511.245 100.662L508.011 102.001L511.245 100.662ZM452.078 43.6472L453.455 40.4292L452.078 43.6472ZM393.094 39.0219L394.519 42.219L393.094 39.0219ZM384.622 61.3239L387.107 58.859L384.622 61.3239ZM419.106 35.5415L422.52 34.7718L419.106 35.5415ZM383.706 13.4226L384.077 9.94224L383.706 13.4226ZM315.335 22.6273L314.437 19.2445L315.335 22.6273ZM235.102 40.7621L234.906 37.2676L235.102 40.7621ZM142.963 26.1078L142.086 29.496L142.963 26.1078ZM60.4869 16.4451L60.1261 12.9637L60.4869 16.4451ZM0.931296 30.2354C0.0241833 31.9424 0.672566 34.0615 2.3795 34.9686L30.1956 49.7508C31.9025 50.658 34.0216 50.0096 34.9287 48.3026C35.8358 46.5957 35.1875 44.4766 33.4805 43.5695L8.75512 30.4297L21.8949 5.70429C22.802 3.99736 22.1536 1.87826 20.4467 0.971145C18.7398 0.0640316 16.6207 0.712414 15.7136 2.41935L0.931296 30.2354ZM496.624 240.816C498.851 238.292 501.12 234.194 503.233 229.752C505.39 225.215 507.538 219.983 509.464 214.946C513.303 204.903 516.358 195.376 516.915 193.294L510.154 191.483C509.684 193.238 506.721 202.517 502.925 212.446C501.033 217.394 498.959 222.439 496.911 226.746C494.818 231.147 492.899 234.458 491.376 236.184L496.624 240.816ZM516.915 193.294C525.099 162.748 527.11 129.825 514.479 99.3226L508.011 102.001C519.841 130.567 518.111 161.78 510.154 191.483L516.915 193.294ZM514.479 99.3226C503 71.6041 480.16 51.8525 453.455 40.4292L450.702 46.8651C476.093 57.7261 497.372 76.3078 508.011 102.001L514.479 99.3226ZM453.455 40.4292C435.574 32.7807 411.704 26.8996 391.67 35.8248L394.519 42.219C411.752 34.5416 433.227 39.3905 450.702 46.8651L453.455 40.4292ZM391.67 35.8248C387.049 37.8837 382.254 41.9265 379.708 46.8406C378.413 49.3405 377.628 52.214 377.919 55.2331C378.215 58.3042 379.598 61.2289 382.138 63.7889L387.107 58.859C385.597 57.3371 385.013 55.8794 384.886 54.5614C384.754 53.1915 385.09 51.6692 385.923 50.0604C387.635 46.7571 391.125 43.7309 394.519 42.219L391.67 35.8248ZM382.138 63.7889C386.738 68.4269 392.089 70.2635 397.438 69.8183C402.654 69.3843 407.515 66.8176 411.478 63.3218C419.242 56.4732 424.796 44.8704 422.52 34.7718L415.691 36.3111C417.232 43.1458 413.368 52.3202 406.847 58.0724C403.668 60.877 400.17 62.5667 396.857 62.8425C393.677 63.1071 390.329 62.1069 387.107 58.859L382.138 63.7889ZM422.52 34.7718C420.422 25.4657 414.045 19.5778 406.734 15.9156C399.491 12.2871 391.059 10.6851 384.077 9.94224L383.336 16.903C389.976 17.6094 397.447 19.0926 403.599 22.1742C409.683 25.222 414.194 29.669 415.691 36.3111L422.52 34.7718ZM384.077 9.94224C360.01 7.38191 336.694 13.3363 314.437 19.2445L316.233 26.0102C338.636 20.0632 360.742 14.4993 383.336 16.903L384.077 9.94224ZM314.437 19.2445C287.491 26.3975 262.12 35.7387 234.906 37.2676L235.299 44.2566C263.463 42.6743 290.123 32.9411 316.233 26.0102L314.437 19.2445ZM234.906 37.2676C203.471 39.0336 174.685 30.7084 143.841 22.7196L142.086 29.496C172.575 37.3928 202.539 46.097 235.299 44.2566L234.906 37.2676ZM143.841 22.7196C115.751 15.4442 89.9163 9.87637 60.1261 12.9637L60.8477 19.9264C89.312 16.9765 114.113 22.2509 142.086 29.496L143.841 22.7196ZM60.1261 12.9637C38.835 15.1702 21.9757 22.7245 2.99794 28.5311L5.04601 35.2248C25.0114 29.1159 40.4562 22.0397 60.8477 19.9264L60.1261 12.9637Z" fill="#93E14A"/>
</svg>
