<svg width="124" height="36" viewBox="0 0 124 36" fill="none" xmlns="http://www.w3.org/2000/svg">
<path d="M14.9297 25.3008C14.1484 25.9648 13.2773 26.4766 12.3164 26.8359C11.3555 27.1875 10.3555 27.3633 9.31641 27.3633C8.51953 27.3633 7.75 27.2578 7.00781 27.0469C6.27344 26.8438 5.58594 26.5547 4.94531 26.1797C4.30469 25.7969 3.71875 25.3438 3.1875 24.8203C2.65625 24.2891 2.20312 23.7031 1.82812 23.0625C1.45312 22.4141 1.16016 21.7188 0.949219 20.9766C0.746094 20.2344 0.644531 19.4648 0.644531 18.668C0.644531 17.8711 0.746094 17.1055 0.949219 16.3711C1.16016 15.6367 1.45312 14.9492 1.82812 14.3086C2.20312 13.6602 2.65625 13.0742 3.1875 12.5508C3.71875 12.0195 4.30469 11.5664 4.94531 11.1914C5.58594 10.8164 6.27344 10.5273 7.00781 10.3242C7.75 10.1133 8.51953 10.0078 9.31641 10.0078C10.3555 10.0078 11.3555 10.1875 12.3164 10.5469C13.2773 10.8984 14.1484 11.4062 14.9297 12.0703L13.1719 15C12.6641 14.4844 12.0781 14.082 11.4141 13.793C10.75 13.4961 10.0508 13.3477 9.31641 13.3477C8.58203 13.3477 7.89062 13.4883 7.24219 13.7695C6.60156 14.0508 6.03906 14.4336 5.55469 14.918C5.07031 15.3945 4.6875 15.957 4.40625 16.6055C4.125 17.2461 3.98438 17.9336 3.98438 18.668C3.98438 19.4102 4.125 20.1055 4.40625 20.7539C4.6875 21.4023 5.07031 21.9688 5.55469 22.4531C6.03906 22.9375 6.60156 23.3203 7.24219 23.6016C7.89062 23.8828 8.58203 24.0234 9.31641 24.0234C9.73828 24.0234 10.1484 23.9727 10.5469 23.8711C10.9453 23.7695 11.3242 23.6289 11.6836 23.4492V18.668H14.9297V25.3008ZM20.2617 27H17.0625V14.4492H17.8359L18.8906 15.9375C19.4062 15.4688 19.9922 15.1094 20.6484 14.8594C21.3047 14.6016 21.9844 14.4727 22.6875 14.4727H25.5117V17.6602H22.6875C22.3516 17.6602 22.0352 17.7227 21.7383 17.8477C21.4414 17.9727 21.1836 18.1445 20.9648 18.3633C20.7461 18.582 20.5742 18.8398 20.4492 19.1367C20.3242 19.4336 20.2617 19.75 20.2617 20.0859V27ZM31.7578 23.9297C31.8828 23.9688 32.0078 23.9961 32.1328 24.0117C32.2578 24.0195 32.3828 24.0234 32.5078 24.0234C32.8203 24.0234 33.1211 23.9805 33.4102 23.8945C33.6992 23.8086 33.9688 23.6875 34.2188 23.5312C34.4766 23.3672 34.7031 23.1719 34.8984 22.9453C35.1016 22.7109 35.2656 22.4531 35.3906 22.1719L37.7344 24.5273C37.4375 24.9492 37.0938 25.3281 36.7031 25.6641C36.3203 26 35.9023 26.2852 35.4492 26.5195C35.0039 26.7539 34.5312 26.9297 34.0312 27.0469C33.5391 27.1719 33.0312 27.2344 32.5078 27.2344C31.625 27.2344 30.793 27.0703 30.0117 26.7422C29.2383 26.4141 28.5586 25.957 27.9727 25.3711C27.3945 24.7852 26.9375 24.0898 26.6016 23.2852C26.2656 22.4727 26.0977 21.582 26.0977 20.6133C26.0977 19.6211 26.2656 18.7148 26.6016 17.8945C26.9375 17.0742 27.3945 16.375 27.9727 15.7969C28.5586 15.2188 29.2383 14.7695 30.0117 14.4492C30.793 14.1289 31.625 13.9688 32.5078 13.9688C33.0312 13.9688 33.543 14.0312 34.043 14.1562C34.543 14.2812 35.0156 14.4609 35.4609 14.6953C35.9141 14.9297 36.3359 15.2188 36.7266 15.5625C37.1172 15.8984 37.4609 16.2773 37.7578 16.6992L31.7578 23.9297ZM33.3984 17.332C33.25 17.2773 33.1016 17.2422 32.9531 17.2266C32.8125 17.2109 32.6641 17.2031 32.5078 17.2031C32.0703 17.2031 31.6562 17.2852 31.2656 17.4492C30.8828 17.6055 30.5469 17.832 30.2578 18.1289C29.9766 18.4258 29.7539 18.7852 29.5898 19.207C29.4258 19.6211 29.3438 20.0898 29.3438 20.6133C29.3438 20.7305 29.3477 20.8633 29.3555 21.0117C29.3711 21.1602 29.3906 21.3125 29.4141 21.4688C29.4453 21.6172 29.4805 21.7617 29.5195 21.9023C29.5586 22.043 29.6094 22.168 29.6719 22.2773L33.3984 17.332ZM44.2734 23.9297C44.3984 23.9688 44.5234 23.9961 44.6484 24.0117C44.7734 24.0195 44.8984 24.0234 45.0234 24.0234C45.3359 24.0234 45.6367 23.9805 45.9258 23.8945C46.2148 23.8086 46.4844 23.6875 46.7344 23.5312C46.9922 23.3672 47.2188 23.1719 47.4141 22.9453C47.6172 22.7109 47.7812 22.4531 47.9062 22.1719L50.25 24.5273C49.9531 24.9492 49.6094 25.3281 49.2188 25.6641C48.8359 26 48.418 26.2852 47.9648 26.5195C47.5195 26.7539 47.0469 26.9297 46.5469 27.0469C46.0547 27.1719 45.5469 27.2344 45.0234 27.2344C44.1406 27.2344 43.3086 27.0703 42.5273 26.7422C41.7539 26.4141 41.0742 25.957 40.4883 25.3711C39.9102 24.7852 39.4531 24.0898 39.1172 23.2852C38.7812 22.4727 38.6133 21.582 38.6133 20.6133C38.6133 19.6211 38.7812 18.7148 39.1172 17.8945C39.4531 17.0742 39.9102 16.375 40.4883 15.7969C41.0742 15.2188 41.7539 14.7695 42.5273 14.4492C43.3086 14.1289 44.1406 13.9688 45.0234 13.9688C45.5469 13.9688 46.0586 14.0312 46.5586 14.1562C47.0586 14.2812 47.5312 14.4609 47.9766 14.6953C48.4297 14.9297 48.8516 15.2188 49.2422 15.5625C49.6328 15.8984 49.9766 16.2773 50.2734 16.6992L44.2734 23.9297ZM45.9141 17.332C45.7656 17.2773 45.6172 17.2422 45.4688 17.2266C45.3281 17.2109 45.1797 17.2031 45.0234 17.2031C44.5859 17.2031 44.1719 17.2852 43.7812 17.4492C43.3984 17.6055 43.0625 17.832 42.7734 18.1289C42.4922 18.4258 42.2695 18.7852 42.1055 19.207C41.9414 19.6211 41.8594 20.0898 41.8594 20.6133C41.8594 20.7305 41.8633 20.8633 41.8711 21.0117C41.8867 21.1602 41.9062 21.3125 41.9297 21.4688C41.9609 21.6172 41.9961 21.7617 42.0352 21.9023C42.0742 22.043 42.125 22.168 42.1875 22.2773L45.9141 17.332ZM55.0898 27H51.8906V14.4492H52.6641L53.7188 15.668C54.2344 15.1992 54.8164 14.8398 55.4648 14.5898C56.1211 14.332 56.8047 14.2031 57.5156 14.2031C58.2812 14.2031 59.0039 14.3516 59.6836 14.6484C60.3633 14.9375 60.957 15.3398 61.4648 15.8555C61.9727 16.3633 62.3711 16.9609 62.6602 17.6484C62.957 18.3281 63.1055 19.0547 63.1055 19.8281V27H59.9062V19.8281C59.9062 19.5 59.8438 19.1914 59.7188 18.9023C59.5938 18.6055 59.4219 18.3477 59.2031 18.1289C58.9844 17.9102 58.7305 17.7383 58.4414 17.6133C58.1523 17.4883 57.8438 17.4258 57.5156 17.4258C57.1797 17.4258 56.8633 17.4883 56.5664 17.6133C56.2695 17.7383 56.0117 17.9102 55.793 18.1289C55.5742 18.3477 55.4023 18.6055 55.2773 18.9023C55.1523 19.1914 55.0898 19.5 55.0898 19.8281V27Z" fill="black"/>
<path d="M78.9766 25.2773L79.3026 25.6564L79.6241 25.3799L79.4038 25.0176L78.9766 25.2773ZM71.0312 27.0469L71.1679 26.5659L71.1645 26.565L71.0312 27.0469ZM68.957 26.1797L68.7005 26.6089L68.7067 26.6125L68.957 26.1797ZM65.8281 23.0508L65.3952 23.3011L65.3989 23.3073L65.8281 23.0508ZM64.9492 20.9766L64.4669 21.1086L64.4687 21.1146L64.9492 20.9766ZM64.9492 16.3594L64.4682 16.2227L64.467 16.2274L64.9492 16.3594ZM65.8281 14.2852L65.3976 14.031L65.3966 14.0326L65.8281 14.2852ZM68.957 11.1562L69.2096 11.5878L69.2112 11.5868L68.957 11.1562ZM71.0312 10.2773L71.1645 10.7593L71.1679 10.7583L71.0312 10.2773ZM76.3516 10.5L76.1777 10.9688L76.181 10.97L76.3516 10.5ZM78.9766 12.0469L79.4038 12.3066L79.6228 11.9464L79.3047 11.6697L78.9766 12.0469ZM77.1953 14.9766L76.8285 15.3164L77.2785 15.8021L77.6225 15.2363L77.1953 14.9766ZM75.4492 13.7578L75.2516 14.2171L75.2561 14.219L75.4492 13.7578ZM69.5547 14.8945L69.9054 15.251L69.9082 15.2481L69.5547 14.8945ZM68.4062 16.5938L68.865 16.7927L68.8658 16.7907L68.4062 16.5938ZM68.4062 20.7422L67.9475 20.9411L67.9484 20.9432L68.4062 20.7422ZM75.4492 23.5781L75.6423 24.0394L75.6468 24.0374L75.4492 23.5781ZM77.1953 22.3477L77.6225 22.0879L77.2785 21.5221L76.8285 22.0078L77.1953 22.3477ZM78.6505 24.8983C77.9144 25.5313 77.0909 26.0166 76.1777 26.3554L76.5255 27.293C77.5497 26.913 78.4762 26.3671 79.3026 25.6564L78.6505 24.8983ZM76.1777 26.3554C75.2649 26.694 74.3199 26.8633 73.3398 26.8633V27.8633C74.4379 27.8633 75.5007 27.6731 76.5255 27.293L76.1777 26.3554ZM73.3398 26.8633C72.5877 26.8633 71.8642 26.7638 71.1679 26.5659L70.8946 27.5278C71.6827 27.7518 72.4983 27.8633 73.3398 27.8633V26.8633ZM71.1645 26.565C70.4704 26.373 69.8184 26.1002 69.2073 25.7469L68.7067 26.6125C69.3926 27.0091 70.1234 27.3145 70.898 27.5288L71.1645 26.565ZM69.2135 25.7505C68.6085 25.3889 68.0551 24.9574 67.5528 24.455L66.8457 25.1621C67.4058 25.7223 68.0243 26.2048 68.7006 26.6089L69.2135 25.7505ZM67.5528 24.455C67.0504 23.9527 66.6189 23.3993 66.2573 22.7943L65.3989 23.3073C65.803 23.9835 66.2855 24.602 66.8457 25.1621L67.5528 24.455ZM66.261 22.8005C65.9068 22.1881 65.6297 21.5345 65.4298 20.8385L64.4687 21.1146C64.6906 21.8874 64.9994 22.6166 65.3953 23.3011L66.261 22.8005ZM65.4315 20.8446C65.2405 20.1469 65.1445 19.4218 65.1445 18.668H64.1445C64.1445 19.5078 64.2516 20.3218 64.467 21.1086L65.4315 20.8446ZM65.1445 18.668C65.1445 17.9141 65.2405 17.189 65.4315 16.4914L64.467 16.2274C64.2516 17.0141 64.1445 17.8281 64.1445 18.668H65.1445ZM65.4302 16.4961C65.63 15.7928 65.9068 15.1406 66.2596 14.5377L65.3966 14.0326C64.9995 14.711 64.6903 15.4415 64.4683 16.2227L65.4302 16.4961ZM66.2587 14.5393C66.6202 13.9271 67.0513 13.3706 67.5528 12.8692L66.8457 12.1621C66.2846 12.7231 65.8017 13.3464 65.3976 14.031L66.2587 14.5393ZM67.5528 12.8692C68.0542 12.3677 68.6063 11.9409 69.2096 11.5878L68.7044 10.7247C68.0265 11.1216 67.4067 11.601 66.8457 12.1621L67.5528 12.8692ZM69.2112 11.5868C69.8213 11.2266 70.472 10.9508 71.1645 10.7592L70.898 9.79544C70.1217 10.0101 69.3896 10.3202 68.7028 10.7257L69.2112 11.5868ZM71.1679 10.7583C71.8642 10.5604 72.5877 10.4609 73.3398 10.4609V9.46094C72.4983 9.46094 71.6827 9.57241 70.8946 9.79639L71.1679 10.7583ZM73.3398 10.4609C74.3199 10.4609 75.2649 10.6302 76.1777 10.9688L76.5255 10.0312C75.5007 9.65108 74.4379 9.46094 73.3398 9.46094V10.4609ZM76.181 10.97C77.0917 11.3005 77.9133 11.7846 78.6484 12.4241L79.3047 11.6697C78.4773 10.9498 77.549 10.4026 76.5221 10.03L76.181 10.97ZM78.5493 11.7871L76.7681 14.7168L77.6225 15.2363L79.4038 12.3066L78.5493 11.7871ZM77.5621 14.6368C77.0211 14.0528 76.3797 13.6053 75.6423 13.2966L75.2561 14.219C75.8625 14.4729 76.3852 14.8379 76.8285 15.3164L77.5621 14.6368ZM75.6468 13.2985C74.9123 12.9825 74.1419 12.8242 73.3398 12.8242V13.8242C74.0066 13.8242 74.6424 13.955 75.2516 14.2171L75.6468 13.2985ZM73.3398 12.8242C72.5327 12.8242 71.7693 12.9775 71.0549 13.2874L71.4529 14.2048C72.0354 13.9521 72.6626 13.8242 73.3398 13.8242V12.8242ZM71.0549 13.2874C70.3507 13.5928 69.7314 14.0107 69.2011 14.541L69.9082 15.2481C70.3467 14.8096 70.8602 14.4618 71.4529 14.2048L71.0549 13.2874ZM69.204 14.5381C68.671 15.0625 68.2522 15.6839 67.9467 16.3968L68.8658 16.7907C69.1228 16.1911 69.4696 15.6796 69.9054 15.2509L69.204 14.5381ZM67.9475 16.3948C67.638 17.1085 67.4844 17.8679 67.4844 18.668H68.4844C68.4844 17.9993 68.612 17.3759 68.865 16.7927L67.9475 16.3948ZM67.4844 18.668C67.4844 19.4681 67.638 20.2275 67.9475 20.9411L68.865 20.5432C68.612 19.96 68.4844 19.3366 68.4844 18.668H67.4844ZM67.9484 20.9432C68.2541 21.6395 68.6719 22.254 69.2011 22.7832L69.9082 22.0761C69.4687 21.6366 69.1209 21.1262 68.8641 20.5412L67.9484 20.9432ZM69.2011 22.7832C69.7314 23.3135 70.3507 23.7314 71.0549 24.0368L71.4529 23.1194C70.8602 22.8624 70.3467 22.5146 69.9082 22.0761L69.2011 22.7832ZM71.0549 24.0368C71.7693 24.3467 72.5327 24.5 73.3398 24.5V23.5C72.6626 23.5 72.0354 23.3721 71.4529 23.1194L71.0549 24.0368ZM73.3398 24.5C74.1399 24.5 74.9087 24.3464 75.6423 24.0393L75.2561 23.1169C74.6459 23.3723 74.0085 23.5 73.3398 23.5V24.5ZM75.6468 24.0374C76.3822 23.7211 77.022 23.2704 77.5621 22.6875L76.8285 22.0078C76.3843 22.4874 75.86 22.8571 75.2516 23.1188L75.6468 24.0374ZM76.7681 22.6074L78.5493 25.5371L79.4038 25.0176L77.6225 22.0879L76.7681 22.6074ZM83.3125 31.7812H82.8125V32.2742L83.3054 32.2812L83.3125 31.7812ZM83.3125 28.5586L83.3191 28.0586L82.8125 28.052V28.5586H83.3125ZM85.0938 28.582L85.0872 29.082H85.0938V28.582ZM86.793 28.0078L86.5011 27.6018L86.495 27.6063L86.793 28.0078ZM87.4492 27.3633L87.0538 27.0572L87.0492 27.0633L87.4492 27.3633ZM87.9062 26.5664L88.3696 26.7543L88.8227 25.6367L87.7118 26.1058L87.9062 26.5664ZM86.8281 27.0117L86.6407 26.5482L86.6372 26.5496L86.8281 27.0117ZM81.7656 25.6641L81.412 26.0177L81.4176 26.023L81.7656 25.6641ZM80.5586 23.8242L80.094 24.0091L80.0965 24.0151L80.5586 23.8242ZM80.125 14.4492V13.9492H79.625V14.4492H80.125ZM83.3125 14.4492H83.8125V13.9492H83.3125V14.4492ZM83.5 22.5586L83.0314 22.733L83.0339 22.7396L83.0365 22.7462L83.5 22.5586ZM84.0273 23.3906L83.6676 23.738L83.6738 23.7442L84.0273 23.3906ZM84.7891 23.8828L84.6121 24.3505L84.6162 24.352L84.7891 23.8828ZM86.6641 23.8242L86.8925 24.269L86.8969 24.2667L86.6641 23.8242ZM87.9531 22.3711L88.4174 22.5568L88.4189 22.5529L87.9531 22.3711ZM88.1406 14.4492V13.9492H87.6406V14.4492H88.1406ZM91.3633 14.4492H91.8633V13.9492H91.3633V14.4492ZM91.3633 25.418L91.8633 25.4224V25.418H91.3633ZM89.4648 29.9297L89.1137 29.5738L89.1113 29.5761L89.4648 29.9297ZM84.9531 31.8047L84.946 32.3047H84.9531V31.8047ZM83.8125 31.7812V28.5586H82.8125V31.7812H83.8125ZM83.3059 29.0586L85.0872 29.082L85.1003 28.0821L83.3191 28.0586L83.3059 29.0586ZM85.0938 29.082C85.4616 29.082 85.8184 29.0221 86.1618 28.9014L85.8304 27.958C85.5956 28.0404 85.3509 28.082 85.0938 28.082V29.082ZM86.1618 28.9014C86.4975 28.7835 86.8078 28.6194 87.0909 28.4094L86.495 27.6063C86.2938 27.7556 86.0728 27.8728 85.8304 27.958L86.1618 28.9014ZM87.0848 28.4138C87.3766 28.204 87.6317 27.9533 87.8492 27.6633L87.0492 27.0633C86.8917 27.2733 86.7093 27.4522 86.5012 27.6018L87.0848 28.4138ZM87.8446 27.6694C88.0606 27.3904 88.2356 27.0849 88.3696 26.7543L87.4429 26.3786C87.3425 26.6261 87.2129 26.8518 87.0539 27.0572L87.8446 27.6694ZM87.7118 26.1058C87.3626 26.2532 87.0056 26.4006 86.6407 26.5482L87.0155 27.4753C87.385 27.3259 87.7467 27.1765 88.1007 27.027L87.7118 26.1058ZM86.6372 26.5496C86.3348 26.6745 86.0362 26.7344 85.7383 26.7344V27.7344C86.1748 27.7344 86.6027 27.6458 87.019 27.4738L86.6372 26.5496ZM85.7383 26.7344C85.0252 26.7344 84.3623 26.6086 83.7452 26.3603L83.372 27.2881C84.1142 27.5867 84.9045 27.7344 85.7383 27.7344V26.7344ZM83.7452 26.3603C83.1244 26.1106 82.5819 25.7591 82.1137 25.3051L81.4176 26.023C81.9806 26.569 82.6334 26.991 83.372 27.2881L83.7452 26.3603ZM82.1192 25.3105C81.6617 24.853 81.2946 24.2963 81.0207 23.6333L80.0965 24.0151C80.4164 24.7896 80.854 25.4595 81.4121 26.0176L82.1192 25.3105ZM81.0232 23.6394C80.7607 22.9797 80.625 22.2312 80.625 21.3867H79.625C79.625 22.3391 79.7783 23.2156 80.094 24.0091L81.0232 23.6394ZM80.625 21.3867V14.4492H79.625V21.3867H80.625ZM80.125 14.9492H83.3125V13.9492H80.125V14.9492ZM82.8125 14.4492V21.3867H83.8125V14.4492H82.8125ZM82.8125 21.3867C82.8125 21.8777 82.8813 22.3295 83.0314 22.733L83.9686 22.3842C83.8687 22.1158 83.8125 21.7864 83.8125 21.3867H82.8125ZM83.0365 22.7462C83.1904 23.1264 83.3992 23.4599 83.6676 23.7379L84.387 23.0433C84.218 22.8682 84.0752 22.6471 83.9635 22.371L83.0365 22.7462ZM83.6738 23.7442C83.9426 24.013 84.2567 24.216 84.6121 24.3505L84.966 23.4152C84.7433 23.3309 84.5496 23.2058 84.3809 23.0371L83.6738 23.7442ZM84.6162 24.352C84.9718 24.483 85.347 24.5469 85.7383 24.5469V23.5469C85.4577 23.5469 85.2001 23.5014 84.9619 23.4136L84.6162 24.352ZM85.7383 24.5469C86.145 24.5469 86.532 24.4541 86.8925 24.269L86.4357 23.3794C86.218 23.4912 85.9878 23.5469 85.7383 23.5469V24.5469ZM86.8969 24.2667C87.2476 24.0821 87.5542 23.8408 87.8138 23.5441L87.0612 22.8856C86.8833 23.0889 86.6743 23.2538 86.4312 23.3818L86.8969 24.2667ZM87.8138 23.5441C88.0703 23.251 88.2717 22.9211 88.4174 22.5568L87.4889 22.1854C87.3846 22.4461 87.2422 22.6787 87.0612 22.8856L87.8138 23.5441ZM88.4189 22.5529C88.566 22.176 88.6406 21.7863 88.6406 21.3867H87.6406C87.6406 21.659 87.5903 21.9256 87.4873 22.1893L88.4189 22.5529ZM88.6406 21.3867V14.4492H87.6406V21.3867H88.6406ZM88.1406 14.9492H91.3633V13.9492H88.1406V14.9492ZM90.8633 14.4492V25.418H91.8633V14.4492H90.8633ZM90.8633 25.4135C90.8561 26.2325 90.697 26.9941 90.389 27.7032L91.3063 28.1015C91.6702 27.2637 91.8549 26.369 91.8633 25.4224L90.8633 25.4135ZM90.389 27.7032C90.0779 28.4194 89.653 29.0416 89.1137 29.5738L89.816 30.2856C90.4486 29.6615 90.9455 28.9321 91.3063 28.1015L90.389 27.7032ZM89.1113 29.5761C88.579 30.1085 87.956 30.5305 87.2383 30.8422L87.6367 31.7594C88.4659 31.3992 89.1945 30.9072 89.8184 30.2832L89.1113 29.5761ZM87.2383 30.8422C86.5307 31.1495 85.7707 31.3047 84.9531 31.3047V32.3047C85.9012 32.3047 86.7975 32.1239 87.6367 31.7594L87.2383 30.8422ZM84.9603 31.3047L83.3196 31.2813L83.3054 32.2812L84.946 32.3046L84.9603 31.3047ZM104.781 16.9453L105.136 17.298L105.408 17.024L105.212 16.6912L104.781 16.9453ZM102.438 19.3008L101.967 19.4689L102.233 20.2151L102.792 19.6535L102.438 19.3008ZM101.957 18.4219L101.56 18.7256L101.564 18.7313L101.957 18.4219ZM101.266 17.7539L100.974 18.16L100.98 18.1641L101.266 17.7539ZM98.2891 17.4727L98.0801 17.0184L98.0766 17.02L98.2891 17.4727ZM97.2812 18.2344L96.9061 17.9039L96.9055 17.9045L97.2812 18.2344ZM97.2812 23.0977L96.9229 23.4464L96.9277 23.4512L97.2812 23.0977ZM98.2891 23.7773L98.0921 24.2369L98.0954 24.2383L98.2891 23.7773ZM101.242 23.5312L101.507 23.9553L101.511 23.9531L101.242 23.5312ZM101.922 22.9453L101.544 22.6178L101.543 22.6188L101.922 22.9453ZM102.414 22.1719L102.768 21.8192L102.254 21.3018L101.957 21.9688L102.414 22.1719ZM104.758 24.5273L105.167 24.8151L105.408 24.472L105.112 24.1747L104.758 24.5273ZM103.727 25.6641L103.401 25.285L103.397 25.2882L103.727 25.6641ZM102.473 26.5195L102.243 26.0754L102.24 26.0771L102.473 26.5195ZM101.055 27.0469L100.941 26.56L100.932 26.5623L101.055 27.0469ZM97.0352 26.7422L96.8359 27.2008L96.8415 27.2032L97.0352 26.7422ZM94.9961 25.3711L94.6425 25.7247L94.6449 25.727L94.9961 25.3711ZM94.9961 15.9844L94.6313 15.6424L94.6312 15.6426L94.9961 15.9844ZM97.0352 14.5078L96.8262 14.0536L96.8245 14.0544L97.0352 14.5078ZM101.066 14.168L100.938 14.6512L100.94 14.6517L101.066 14.168ZM102.508 14.7539L102.26 15.1886L102.269 15.1934L102.508 14.7539ZM103.773 15.6797L103.427 16.0405L103.431 16.044L103.773 15.6797ZM104.427 16.5926L102.083 18.9481L102.792 19.6535L105.136 17.298L104.427 16.5926ZM102.908 19.1326C102.774 18.7566 102.588 18.4154 102.35 18.1124L101.564 18.7313C101.732 18.944 101.867 19.1887 101.967 19.4689L102.908 19.1326ZM102.354 18.1181C102.122 17.8141 101.854 17.5548 101.552 17.3437L100.98 18.1641C101.193 18.3124 101.386 18.4984 101.56 18.7256L102.354 18.1181ZM101.557 17.3479C101.264 17.1369 100.943 16.9765 100.596 16.867L100.295 17.8205C100.542 17.8985 100.767 18.0115 100.974 18.1599L101.557 17.3479ZM100.596 16.867C100.25 16.7578 99.8946 16.7031 99.5312 16.7031V17.7031C99.7929 17.7031 100.047 17.7422 100.295 17.8205L100.596 16.867ZM99.5312 16.7031C99.0229 16.7031 98.5374 16.808 98.0801 17.0184L98.498 17.9269C98.8219 17.7779 99.1646 17.7031 99.5312 17.7031V16.7031ZM98.0766 17.02C97.6296 17.2298 97.2389 17.5261 96.9061 17.9039L97.6564 18.5649C97.9018 18.2864 98.1829 18.0748 98.5015 17.9253L98.0766 17.02ZM96.9055 17.9045C96.5794 18.2759 96.327 18.7135 96.1441 19.21L97.0825 19.5557C97.2277 19.1615 97.4206 18.8335 97.657 18.5643L96.9055 17.9045ZM96.1441 19.21C95.9571 19.7176 95.8672 20.2693 95.8672 20.8594H96.8672C96.8672 20.3714 96.9414 19.9386 97.0825 19.5557L96.1441 19.21ZM95.8672 20.8594C95.8672 21.3611 95.9616 21.8386 96.1537 22.2868L97.0729 21.8929C96.9368 21.5754 96.8672 21.2326 96.8672 20.8594H95.8672ZM96.1537 22.2868C96.3411 22.7241 96.5975 23.1119 96.9229 23.4463L97.6396 22.749C97.4025 22.5053 97.2136 22.2212 97.0729 21.8929L96.1537 22.2868ZM96.9277 23.4512C97.2626 23.7861 97.6519 24.0483 98.0921 24.2369L98.486 23.3178C98.1606 23.1783 97.878 22.9873 97.6348 22.7441L96.9277 23.4512ZM98.0954 24.2383C98.5494 24.429 99.0295 24.5234 99.5312 24.5234V23.5234C99.158 23.5234 98.81 23.4538 98.4827 23.3164L98.0954 24.2383ZM99.5312 24.5234C99.8902 24.5234 100.239 24.474 100.576 24.3738L100.291 23.4153C100.05 23.487 99.7973 23.5234 99.5312 23.5234V24.5234ZM100.576 24.3738C100.907 24.2753 101.218 24.1359 101.507 23.9552L100.977 23.1073C100.766 23.2391 100.538 23.3419 100.291 23.4153L100.576 24.3738ZM101.511 23.9531C101.809 23.7634 102.073 23.5361 102.301 23.2718L101.543 22.6188C101.38 22.8076 101.191 22.971 100.974 23.1094L101.511 23.9531ZM102.3 23.2728C102.535 23.0014 102.726 22.7017 102.871 22.3749L101.957 21.9688C101.852 22.2046 101.715 22.4205 101.544 22.6178L102.3 23.2728ZM102.06 22.5245L104.403 24.88L105.112 24.1747L102.768 21.8192L102.06 22.5245ZM104.349 24.2396C104.076 24.6278 103.76 24.976 103.401 25.285L104.053 26.0432C104.475 25.6803 104.846 25.2707 105.167 24.8151L104.349 24.2396ZM103.397 25.2882C103.044 25.5974 102.66 25.8596 102.243 26.0754L102.702 26.9636C103.191 26.7107 103.643 26.4026 104.056 26.0399L103.397 25.2882ZM102.24 26.0771C101.833 26.2913 101.4 26.4524 100.941 26.5601L101.169 27.5337C101.709 27.407 102.222 27.2165 102.706 26.962L102.24 26.0771ZM100.932 26.5623C100.481 26.6767 100.014 26.7344 99.5312 26.7344V27.7344C100.095 27.7344 100.644 27.667 101.178 27.5315L100.932 26.5623ZM99.5312 26.7344C98.7121 26.7344 97.9462 26.5825 97.2288 26.2812L96.8415 27.2032C97.6867 27.5581 98.5848 27.7344 99.5312 27.7344V26.7344ZM97.2343 26.2836C96.5161 25.9716 95.8882 25.5489 95.3473 25.0152L94.6449 25.727C95.2758 26.3495 96.0074 26.8409 96.836 27.2008L97.2343 26.2836ZM95.3496 25.0175C94.8173 24.4852 94.3953 23.8622 94.0836 23.1446L93.1664 23.5429C93.5265 24.3721 94.0186 25.1007 94.6425 25.7246L95.3496 25.0175ZM94.0836 23.1446C93.7763 22.4369 93.6211 21.6769 93.6211 20.8594H92.6211C92.6211 21.8074 92.8019 22.7037 93.1664 23.5429L94.0836 23.1446ZM93.6211 20.8594C93.6211 19.958 93.7784 19.1233 94.0889 18.3505L93.1611 17.9776C92.7998 18.8767 92.6211 19.8389 92.6211 20.8594H93.6211ZM94.0889 18.3505C94.4033 17.5683 94.8279 16.8953 95.361 16.3262L94.6312 15.6426C94.008 16.3078 93.5186 17.088 93.1611 17.9776L94.0889 18.3505ZM95.3609 16.3263C95.9032 15.7478 96.5307 15.2935 97.2458 14.9613L96.8245 14.0544C95.9927 14.4408 95.2608 14.9709 94.6313 15.6424L95.3609 16.3263ZM97.2441 14.9621C97.9581 14.6336 98.7186 14.4688 99.5312 14.4688V13.4688C98.5783 13.4688 97.6748 13.6632 96.8262 14.0536L97.2441 14.9621ZM99.5312 14.4688C100.012 14.4688 100.48 14.5297 100.938 14.6512L101.195 13.6847C100.652 13.5407 100.098 13.4688 99.5312 13.4688V14.4688ZM100.94 14.6517C101.406 14.7735 101.846 14.9524 102.261 15.1885L102.755 14.3193C102.264 14.0398 101.743 13.828 101.193 13.6842L100.94 14.6517ZM102.269 15.1934C102.691 15.4219 103.076 15.7039 103.427 16.0405L104.12 15.3188C103.705 14.9211 103.247 14.5859 102.746 14.3144L102.269 15.1934ZM103.431 16.044C103.786 16.3778 104.093 16.7623 104.351 17.1994L105.212 16.6912C104.907 16.1752 104.542 15.716 104.116 15.3154L103.431 16.044ZM109.574 27V27.5H110.074V27H109.574ZM106.352 27H105.852V27.5H106.352V27ZM106.352 9.45703V8.95703H105.852V9.45703H106.352ZM109.574 9.45703H110.074V8.95703H109.574V9.45703ZM109.574 26.5H106.352V27.5H109.574V26.5ZM106.852 27V9.45703H105.852V27H106.852ZM106.352 9.95703H109.574V8.95703H106.352V9.95703ZM109.074 9.45703V27H110.074V9.45703H109.074ZM117.016 23.9297L116.631 23.6104L116.155 24.1844L116.866 24.4069L117.016 23.9297ZM117.391 24.0117L117.329 24.5079L117.344 24.5098L117.359 24.5107L117.391 24.0117ZM119.477 23.5312L119.742 23.9553L119.745 23.9531L119.477 23.5312ZM120.156 22.9453L119.778 22.6178L119.778 22.6188L120.156 22.9453ZM120.648 22.1719L121.003 21.8192L120.488 21.3018L120.192 21.9688L120.648 22.1719ZM122.992 24.5273L123.401 24.8151L123.643 24.472L123.347 24.1747L122.992 24.5273ZM121.961 25.6641L121.635 25.285L121.631 25.2882L121.961 25.6641ZM120.707 26.5195L120.477 26.0754L120.474 26.0771L120.707 26.5195ZM119.289 27.0469L119.175 26.56L119.166 26.5623L119.289 27.0469ZM115.27 26.7422L115.074 27.2025L115.076 27.2032L115.27 26.7422ZM113.23 25.3711L112.875 25.7223L112.877 25.7246L113.23 25.3711ZM111.859 23.2852L111.397 23.4762L111.398 23.4778L111.859 23.2852ZM113.23 15.7969L112.879 15.4409L112.877 15.4433L113.23 15.7969ZM115.27 14.4492L115.08 13.9866L115.078 13.9873L115.27 14.4492ZM120.719 14.6953L120.486 15.1378L120.489 15.1394L120.719 14.6953ZM121.984 15.5625L121.654 15.9379L121.658 15.9416L121.984 15.5625ZM123.016 16.6992L123.4 17.0185L123.645 16.7242L123.425 16.4115L123.016 16.6992ZM118.656 17.332L119.056 17.6329L119.461 17.0955L118.829 16.8629L118.656 17.332ZM118.211 17.2266L118.156 17.7235L118.159 17.7238L118.211 17.2266ZM116.523 17.4492L116.712 17.9122L116.717 17.9102L116.523 17.4492ZM115.516 18.1289L115.157 17.7801L115.153 17.785L115.516 18.1289ZM114.848 19.207L115.313 19.3912L115.314 19.3883L114.848 19.207ZM114.613 21.0117L114.114 21.038L114.115 21.0511L114.116 21.0641L114.613 21.0117ZM114.672 21.4688L114.177 21.5429L114.18 21.5574L114.183 21.5718L114.672 21.4688ZM114.93 22.2773L114.496 22.5254L114.872 23.1845L115.329 22.5783L114.93 22.2773ZM116.866 24.4069C117.019 24.4545 117.173 24.4884 117.329 24.5079L117.453 23.5156C117.358 23.5038 117.262 23.483 117.165 23.4524L116.866 24.4069ZM117.359 24.5107C117.495 24.5192 117.63 24.5234 117.766 24.5234V23.5234C117.651 23.5234 117.536 23.5199 117.422 23.5127L117.359 24.5107ZM117.766 24.5234C118.125 24.5234 118.473 24.474 118.81 24.3738L118.525 23.4153C118.284 23.487 118.032 23.5234 117.766 23.5234V24.5234ZM118.81 24.3738C119.142 24.2753 119.453 24.1359 119.742 23.9552L119.212 23.1073C119.001 23.2391 118.772 23.3419 118.525 23.4153L118.81 24.3738ZM119.745 23.9531C120.043 23.7634 120.307 23.5361 120.535 23.2718L119.778 22.6188C119.615 22.8076 119.426 22.971 119.208 23.1094L119.745 23.9531ZM120.534 23.2728C120.769 23.0014 120.96 22.7017 121.105 22.3749L120.192 21.9688C120.087 22.2046 119.949 22.4205 119.778 22.6178L120.534 23.2728ZM120.294 22.5245L122.638 24.88L123.347 24.1747L121.003 21.8192L120.294 22.5245ZM122.583 24.2396C122.31 24.6278 121.994 24.976 121.635 25.285L122.287 26.0432C122.709 25.6803 123.08 25.2707 123.401 24.8151L122.583 24.2396ZM121.631 25.2882C121.279 25.5974 120.894 25.8596 120.477 26.0754L120.937 26.9636C121.426 26.7107 121.877 26.4026 122.291 26.0399L121.631 25.2882ZM120.474 26.0771C120.067 26.2913 119.635 26.4524 119.175 26.5601L119.403 27.5337C119.944 27.407 120.456 27.2165 120.94 26.962L120.474 26.0771ZM119.166 26.5623C118.715 26.6767 118.249 26.7344 117.766 26.7344V27.7344C118.329 27.7344 118.878 27.667 119.412 27.5315L119.166 26.5623ZM117.766 26.7344C116.946 26.7344 116.181 26.5825 115.463 26.2812L115.076 27.2032C115.921 27.5581 116.819 27.7344 117.766 27.7344V26.7344ZM115.465 26.2819C114.75 25.9785 114.124 25.5574 113.584 25.0175L112.877 25.7246C113.509 26.3566 114.243 26.8496 115.074 27.2025L115.465 26.2819ZM113.586 25.0199C113.056 24.4823 112.634 23.8417 112.321 23.0925L111.398 23.4778C111.757 24.338 112.249 25.0881 112.875 25.7223L113.586 25.0199ZM112.321 23.0941C112.013 22.3481 111.855 21.5232 111.855 20.6133H110.855C110.855 21.6409 111.034 22.5972 111.397 23.4762L112.321 23.0941ZM111.855 20.6133C111.855 19.6783 112.014 18.8374 112.322 18.084L111.397 17.705C111.033 18.5923 110.855 19.5638 110.855 20.6133H111.855ZM112.322 18.084C112.635 17.3199 113.057 16.6778 113.584 16.1504L112.877 15.4433C112.248 16.0722 111.756 16.8286 111.397 17.705L112.322 18.084ZM113.582 16.1528C114.121 15.6208 114.746 15.2072 115.461 14.9112L115.078 13.9873C114.246 14.3318 113.512 14.8167 112.879 15.441L113.582 16.1528ZM115.459 14.9118C116.178 14.6173 116.945 14.4688 117.766 14.4688V13.4688C116.821 13.4688 115.924 13.6405 115.08 13.9866L115.459 14.9118ZM117.766 14.4688C118.249 14.4688 118.72 14.5264 119.18 14.6413L119.422 13.6712C118.882 13.5361 118.329 13.4688 117.766 13.4688V14.4688ZM119.18 14.6413C119.642 14.7569 120.077 14.9225 120.486 15.1378L120.952 14.2529C120.47 13.9994 119.96 13.8056 119.422 13.6712L119.18 14.6413ZM120.489 15.1394C120.905 15.3547 121.293 15.6205 121.654 15.9379L122.315 15.1871C121.894 14.817 121.439 14.5047 120.948 14.2512L120.489 15.1394ZM121.658 15.9416C122.018 16.2506 122.334 16.5988 122.607 16.987L123.425 16.4115C123.104 15.9559 122.732 15.5463 122.31 15.1834L121.658 15.9416ZM122.631 16.3799L116.631 23.6104L117.4 24.249L123.4 17.0185L122.631 16.3799ZM118.829 16.8629C118.644 16.7947 118.455 16.7495 118.263 16.7293L118.159 17.7238C118.263 17.7349 118.371 17.76 118.483 17.8012L118.829 16.8629ZM118.266 16.7296C118.105 16.7118 117.938 16.7031 117.766 16.7031V17.7031C117.905 17.7031 118.035 17.7101 118.156 17.7235L118.266 16.7296ZM117.766 16.7031C117.264 16.7031 116.784 16.7976 116.33 16.9882L116.717 17.9102C117.044 17.7727 117.392 17.7031 117.766 17.7031V16.7031ZM116.334 16.9863C115.888 17.1686 115.494 17.4341 115.157 17.7801L115.874 18.4777C116.115 18.23 116.393 18.0423 116.712 17.9121L116.334 16.9863ZM115.153 17.785C114.822 18.1337 114.567 18.55 114.382 19.0258L115.314 19.3883C115.457 19.0203 115.646 18.7178 115.879 18.4728L115.153 17.785ZM114.383 19.0228C114.192 19.5049 114.102 20.0376 114.102 20.6133H115.102C115.102 20.142 115.175 19.7373 115.312 19.3912L114.383 19.0228ZM114.102 20.6133C114.102 20.7412 114.106 20.883 114.114 21.038L115.113 20.9854C115.105 20.8436 115.102 20.7198 115.102 20.6133H114.102ZM114.116 21.0641C114.132 21.2202 114.153 21.3798 114.177 21.5429L115.166 21.3946C115.144 21.2452 115.125 21.1001 115.111 20.9594L114.116 21.0641ZM114.183 21.5718C114.216 21.7301 114.254 21.885 114.296 22.0362L115.259 21.7685C115.223 21.6385 115.19 21.5042 115.161 21.3657L114.183 21.5718ZM114.296 22.0362C114.344 22.2105 114.41 22.3749 114.496 22.5254L115.364 22.0293C115.325 21.961 115.289 21.8754 115.259 21.7685L114.296 22.0362ZM115.329 22.5783L119.056 17.6329L118.257 17.0311L114.53 21.9764L115.329 22.5783Z" fill="#93E14A"/>
</svg>
